<svg xmlns="http://www.w3.org/2000/svg" xmlns:xlink="http://www.w3.org/1999/xlink" viewBox="0 0 56.213 67.213" fill="#fff" fill-rule="evenodd" stroke="#000" stroke-linecap="round" stroke-linejoin="round"><use xlink:href="#A" x="1.106" y="1.106"/><symbol id="A" overflow="visible"><path d="M45.415 18.807l-4.646 4.647c7.744 7.744 7.744 20.356 0 28.1s-20.356 7.744-28.1 0-7.744-20.356 0-28.1l12.4-12.4 1.55-1.77V0L7.8 18.807A26.31 26.31 0 0 0 0 37.504a26.31 26.31 0 0 0 7.8 18.697 26.31 26.31 0 0 0 37.393 0c10.62-10.4 10.62-27.215.22-37.393zM32.58 13.94c0-1.96 1.58-3.54 3.54-3.54s3.54 1.58 3.54 3.54-1.58 3.54-3.54 3.54-3.54-1.58-3.54-3.54z" stroke="none" fill="#ee4c2c" fill-rule="nonzero"/></symbol></svg>