<?xml version="1.0" encoding="utf-8"?>
<!-- Generator: Adobe Illustrator 24.0.0, SVG Export Plug-In . SVG Version: 6.00 Build 0)  -->
<svg version="1.1" id="Слой_1" xmlns="http://www.w3.org/2000/svg" xmlns:xlink="http://www.w3.org/1999/xlink" x="0px" y="0px"
	 viewBox="0 0 2500 2500" style="enable-background:new 0 0 2500 2500;" xml:space="preserve">
<style type="text/css">
	.st0{fill-rule:evenodd;clip-rule:evenodd;fill:#AD4246;}
	
		.st1{fill-rule:evenodd;clip-rule:evenodd;fill:#417564;stroke:#FFFFFF;stroke-width:7.717;stroke-linecap:round;stroke-linejoin:round;stroke-miterlimit:33.89;}
</style>
<g>
	<path class="st0" d="M1997.2,2076.2l-315.9,313.5l-838.4-2.4L510,2054.4l2.4-452h471.4l-2.4-80.2l-160.4-2.4l-318.3-318.3V452.9
		l345.1-342.6H1657c109.4,104.5,230.8,230.8,337.8,340.2v449.6l-398.5-2.4l7.3,51l60.8,12.2l330.5,328.1L1997.2,2076.2z
		 M592.7,482.1l289.2-291.6h318.3c12.2-9.7,21.9-29.2,36.5-31.6c-125.5-2.4-251.1-2.4-376.7,0L553.8,469.9l-2.4,702.3l301.3,306.2
		h63.2l-36.5-31.6l-286.7-281.9V482.1z M1941.4,462.7c-102.1-104.5-194.4-199.3-303.8-301.3c-138.5-2.4-257.6-2.4-388.8-2.4
		c14.6,2.4,24.3,19.4,31.6,31.6l335.3,4.9l286.7,284.3v323.2l-405.8,2.4c2.4,12.2,4.8,34,17,38.9l427.7,2.4L1941.4,462.7
		L1941.4,462.7z M1017.9,625.5l-2.4,99.6c12.2-14.6,4.9-4.9,41.3-58.3l80.2-4.9c12.2-7.3,0-2.4,26.7-34L1017.9,625.5L1017.9,625.5z
		 M1431.1,625.5c17,17,21.9,53.5,53.4,38.9l2.4-19.4C1486.9,613.3,1448,625.5,1431.1,625.5L1431.1,625.5z M1030.1,832
		c-29.2,4.9-17,36.5-19.4,55.9c4.9,9.7-2.4,34,17,26.7c12.2,2.4,21.9-7.3,21.9-19.4C1047.1,873.3,1056.8,839.3,1030.1,832
		L1030.1,832z M1100.5,832c-9.7,7.3-4.9,19.4-2.4,31.6l21.9-7.3C1124.9,846.6,1110.3,834.4,1100.5,832z M600,2020.3l2.4-323.2
		l296.5-2.4c9.7-7.3,17-21.9,14.6-34H556.2v366.9l308.6,308.6l794.6,2.4l289.2-291.6l-2.4-731.4l-298.9-301.3h-194.4
		c36.5,41.3,172.5,34,172.5,34l274.6,277v714.5l-260,257.6l-755.8,2.4L600,2020.3L600,2020.3z M1457.8,1478.4
		c4.9,2.4,7.3,9.7,14.6,7.3c9.7-2.4,12.2-36.5,7.3-43.7C1465.1,1432.3,1450.5,1461.4,1457.8,1478.4L1457.8,1478.4z M1336.3,1665.6
		l-2.4,99.6l65.6,2.4v-68L1336.3,1665.6L1336.3,1665.6z M1486.9,1721.4c0,0-4.9,0-38.9-12.2v111.8l-111.8,2.4v38.9l150.7,4.9
		L1486.9,1721.4L1486.9,1721.4z M1149.2,1772.5l41.3,4.9c0,0,2.4-31.6,2.4-41.3C1183.2,1738.5,1149.2,1772.5,1149.2,1772.5z
		 M1185.6,1862.4l-2.4-36.5c0,0-92.3,7.3-121.5-7.3c-2.4-24.3-29.2-17-46.2-21.9l4.9,70.5L1185.6,1862.4z"/>
	<path class="st1" d="M1243.9,200.2c-9.7-4.9-12.2,4.9-17,9.7c7.3,48.6-55.9,75.3-26.7,126.4c-7.3,34-51,29.2-82.6,36.5
		c-14.6,36.5,41.3,12.2,51,41.3c17,46.2-43.7,26.7-51,60.8c24.3,26.7-21.9,51-26.7,82.6c21.9,19.4,41.3-29.2,68-14.6
		c48.6,12.2,24.3,60.8,46.2,89.9c4.9,14.6,9.7,36.5-4.9,48.6c-2.4,0-7.3,2.4-7.3-2.4c-31.6-14.6-26.7,24.3-43.7,36.4
		c-9.7,2.4-31.6-9.7-38.9,9.7c-53.5-41.3-51,41.3-97.2,38.9c-19.4,9.7-36.5,31.6-31.6,51l7.3,2.4c36.5-55.9,97.2-9.7,148.2-19.4
		c17,9.7,31.6,29.2,26.7,51c-7.3,21.9-26.7,36.5-46.2,48.6c-36.5,72.9-138.5,41.3-170.1,121.5c-4.9,17-12.2,48.6,7.3,58.3
		c14.6-58.3,65.6,14.6,82.6-41.3c36.5-53.5,102.1,7.3,143.4-34c4.9,21.9-14.6,41.3-21.9,60.8c-9.7,19.4,9.7,48.6-14.6,60.8
		c-38.9,21.9-99.6,24.3-111.8,75.3c21.9-41.3,75.3-4.9,106.9-21.9c7.3,4.9,2.4,17,4.9,24.3c-12.2,60.8-82.6,58.3-131.2,70.5
		c-24.3,17-46.2,51-82.6,43.7c0,4.9-2.4,14.6,4.9,17c21.9,4.9,43.7,0,63.2-9.7c14.6,2.4,24.3,19.5,31.6,29.2
		c19.4,72.9-77.8,19.4-87.5,75.3c9.7,12.1,17,29.2,36.5,26.7c46.2,4.9,75.3-70.5,126.4-29.2c26.7-4.9,46.2-19.5,65.6-34
		c34,63.2-68.1,63.2-68.1,123.9c-29.2,14.6-77.8,17-75.3,60.8c21.9,12.2,31.6-12.1,51-9.7c7.3,4.8,21.9,14.6,19.4,26.7
		c-12.2,43.7-60.8,41.3-94.8,51c-43.7,43.7-89.9,92.4-77.8,160.4c9.7,7.3,0,29.2,17,29.2c12.2-36.5,21.9-77.8,60.8-99.6
		c24.3-17,31.6,24.3,58.3,17c17-38.9,51-17,80.2-19.4c29.2-19.5,36.5-51,58.3-75.3c7.3-2.4,14.6,0,19.4,7.3
		c29.2,68,19.4,153.1,7.3,226c4.9,162.8-119.1,291.6-257.6,359.7v4.9c46.2,2.4,89.9-14.6,136.1-14.6c63.2,29.2,131.2-24.3,194.4,9.7
		c75.3-21.9,153.1,14.6,226-9.7l-12.2-9.7c-128.8-53.5-223.5-189.6-223.5-335.4c-2.4-97.2-9.7-199.3-2.4-294
		c4.8-12.2,19.4-31.6,38.9-24.3c14.6,9.7,29.2,21.9,29.2,38.9c7.3,19.5,19.4,51,46.2,38.9c46.2-41.3,68,41.3,124,17
		c9.7,14.6,29.2,17,46.2,14.6c12.2,7.3,19.5,21.9,21.9,36.5c9.7,21.9,31.6,34,53.4,31.6c9.7,2.4,21.9-9.7,12.2-19.4
		c-29.2-26.7-46.2-58.3-58.3-92.4c-21.9-9.7-46.2-12.1-63.2-31.6c-26.7-41.3,55.9-46.2,34-82.6l-119.1-2.4l-7.3,7.3l-7.3-4.9
		l4.9-2.4l-21.9-21.9c12.1-53.4-51-82.6-21.9-133.7c9.7,0,17-2.4,21.9,7.3c21.9,21.9,43.7,7.3,60.8-9.7c12.2-2.4,21.9,7.3,31.6,17
		c12.2,2.4,34,21.9,43.7,0c-12.2-31.6,29.2-51,14.6-82.6c-19.4-19.4-36.4,9.7-58.3,0c-51-29.2-121.5-17-157.9-72.9
		c-7.3-14.6-14.6-34,2.4-43.7c21.9-4.9,43.7,4.9,60.8,19.4c43.7,36.5,58.3-46.2,99.6-7.3c0-4.9,0-12.2-4.9-14.6
		c-41.3-14.6-72.9-68.1-126.4-51c-24.3-12.2-51-31.6-63.2-58.3c-9.7-9.7-4.8-26.7,2.4-34c36.5-7.3,55.9,43.7,87.5,51
		c19.4,7.3,48.6,12.2,58.3-7.3l-7.3-9.7c-48.6-17-80.2-55.9-114.2-97.2c4.9-29.2-24.3-55.9-4.9-77.8c53.4-12.2,80.2,65.6,133.7,36.4
		c26.7,4.9,53.5,36.5,77.8,12.2c-29.2-46.2-99.6-65.6-114.2-121.5c-12.1-34-51-19.4-75.3-34c-19.4-9.7-41.3-24.3-41.3-48.6
		c26.7-26.7,46.2,26.7,77.8,17c38.9-46.2,68,36.5,109.4,2.4c-12.2-53.5-77.8-46.2-106.9-92.3c-41.3-14.6-106.9-7.3-114.2-65.6
		c17-46.2,68-7.3,102.1-26.7c7.3-7.3,17-17,12.1-31.6c-4.9-7.3-7.3-17-19.4-17c-29.2,12.2-58.3,2.4-82.6-12.2
		c-9.7-9.7-7.3-29.2,7.3-34c26.7-14.6,46.2,7.3,72.9,17c41.3-29.2-31.6-43.7-34-68.1c7.3-12.2,19.4-9.7,29.2-17
		c-17-53.5-85.1-29.2-111.8-72.9c-7.3-21.9,19.5-38.9,34-51c0-17-21.9-19.4-34-29.2C1253.6,243.9,1256.1,219.7,1243.9,200.2
		L1243.9,200.2z"/>
</g>
</svg>
